HIERARCHY
ROOT hip
{
	OFFSET 0.000000 0.000000 0.000000 
	CHANNELS 6 Xposition Yposition Zposition Zrotation Xrotation Yrotation
	JOINT abdomen
	{
		OFFSET 0.000000 3.402643 0.000000 
		CHANNELS 3 Zrotation Xrotation Yrotation
		JOINT chest
		{
			OFFSET 0.000000 8.438565 -0.680529 
			CHANNELS 3 Zrotation Xrotation Yrotation
			JOINT neck
			{
				OFFSET 0.000000 10.207942 -0.272212 
				CHANNELS 3 Zrotation Xrotation Yrotation
				JOINT head
				{
					OFFSET 0.000000 3.130431 0.000000 
					CHANNELS 3 Zrotation Xrotation Yrotation
					End Site
					{
						OFFSET 0.000000 3.130435 0.000000 
					}
				}
			}
			JOINT lCollar
			{
				OFFSET 3.470700 6.669187 -0.816635 
				CHANNELS 3 Zrotation Xrotation Yrotation
				JOINT lShldr
				{
					OFFSET 3.198488 0.000000 0.000000 
					CHANNELS 3 Zrotation Xrotation Yrotation
					JOINT lForeArm
					{
						OFFSET 10.139888 0.000000 0.000000 
						CHANNELS 3 Zrotation Xrotation Yrotation
						JOINT lHand
						{
							OFFSET 8.370511 0.000000 0.000000 
							CHANNELS 3 Zrotation Xrotation Yrotation
							End Site
							{
								OFFSET 4.083176 0.000000 0.000000 
							}
						}
					}
				}
			}
			JOINT rCollar
			{
				OFFSET -3.470700 6.669187 -0.816635 
				CHANNELS 3 Zrotation Xrotation Yrotation
				JOINT rShldr
				{
					OFFSET -3.198488 0.000000 0.000000 
					CHANNELS 3 Zrotation Xrotation Yrotation
					JOINT rForeArm
					{
						OFFSET -10.139888 0.000000 0.000000 
						CHANNELS 3 Zrotation Xrotation Yrotation
						JOINT rHand
						{
							OFFSET -8.370511 0.000000 0.000000 
							CHANNELS 3 Zrotation Xrotation Yrotation
							End Site
							{
								OFFSET -4.083176 0.000000 0.000000 
							}
						}
					}
				}
			}
		}
	}
	JOINT lThigh
	{
		OFFSET 5.308129 -1.633274 1.361059 
		CHANNELS 3 Zrotation Xrotation Yrotation
		JOINT lShin
		{
			OFFSET -2.041588 -20.007561 0.000000 
			CHANNELS 3 Zrotation Xrotation Yrotation
			JOINT lFoot
			{
				OFFSET 0.000000 -19.190928 -1.224953 
				CHANNELS 3 Zrotation Xrotation Yrotation
				End Site
				{
					OFFSET 0.000000 -2.449906 4.627600 
				}
			}
		}
	}
	JOINT rThigh
	{
		OFFSET -5.308129 -1.633274 1.361059 
		CHANNELS 3 Zrotation Xrotation Yrotation
		JOINT rShin
		{
			OFFSET 2.041588 -20.007561 0.000000 
			CHANNELS 3 Zrotation Xrotation Yrotation
			JOINT rFoot
			{
				OFFSET 0.000000 -19.190928 -1.224953 
				CHANNELS 3 Zrotation Xrotation Yrotation
				End Site
				{
					OFFSET 0.000000 -2.449906 4.627600 
				}
			}
		}
	}
}
MOTION
Frames: 8
Frame Time: 0.033333
-0.094419 47.783070 3.053102 -0.000000 5.097655 -0.000000 -0.092454 -18.076151 -0.077515 -0.111156 -14.892550 -0.028586 -0.000000 -0.000003 -0.000000 -0.000000 12.080081 -0.000000 -5.687435 -0.268816 2.011532 -19.577345 10.033488 -49.785358 13.909879 11.740438 -137.615311 73.643280 -51.875244 -2.871088 4.922657 -0.373074 -1.722154 7.425662 12.808840 35.959358 -4.114968 3.562158 139.031693 -78.311707 -15.976888 18.387424 2.269564 -10.017294 1.038341 -2.355383 14.011545 -0.661575 -0.085064 -9.373955 -0.122246 -4.262064 -10.006524 -0.661898 1.729220 13.900339 -0.275978 1.492675 -9.712857 -1.608205 
-0.100349 47.729160 3.190603 -0.000000 5.107422 -0.000000 -0.092357 -17.890606 -0.077200 -0.111091 -14.765592 -0.028331 -0.000000 -0.000003 -0.000000 -0.000000 12.177735 -0.000000 -5.687435 -0.268816 2.011532 -20.286787 9.909095 -49.577442 14.143937 12.144753 -137.157379 73.103722 -52.021023 -2.930907 4.922657 -0.373074 -1.722154 8.295314 12.884421 35.444294 -4.438109 3.845319 138.797729 -77.646957 -16.456144 18.617199 2.319545 -9.874862 1.042710 -2.142955 13.998281 -0.886327 -0.496052 -9.442827 0.023049 -4.262346 -9.865261 -1.331655 1.629816 13.973548 0.217153 1.468289 -10.042165 -1.380589 
-0.105210 47.675934 3.329535 -0.000000 5.117188 -0.000000 -0.092276 -17.734362 -0.076936 -0.111001 -14.589815 -0.027979 -0.000000 -0.000003 -0.000000 -0.000000 12.226564 -0.000000 -5.687435 -0.268816 2.011532 -21.073893 9.761391 -49.355457 14.358387 12.562898 -136.663223 72.535652 -52.087254 -2.970094 4.922657 -0.373074 -1.722154 9.240186 12.978015 34.871105 -4.772947 4.145049 138.546921 -76.896812 -16.875389 18.758532 2.276740 -9.444468 0.996919 -1.994997 13.992249 -0.838720 -0.526226 -9.862706 0.021755 -4.266662 -9.503010 -0.627373 1.650392 13.958530 -0.254103 1.502722 -10.341568 -1.605228 
-0.108966 47.623432 3.466658 -0.000000 5.117188 -0.000000 -0.092206 -17.597635 -0.076705 -0.110879 -14.345676 -0.027491 -0.000000 -0.000003 -0.000000 -0.000000 12.236329 -0.000000 -5.687435 -0.268816 2.011532 -21.907894 9.607520 -49.123119 14.569061 12.990253 -136.148254 71.921501 -52.085541 -3.017425 4.922657 -0.373074 -1.722154 10.249303 13.063955 34.266056 -5.128963 4.465360 138.299591 -76.078766 -17.233511 18.846125 2.287017 -9.551365 1.017954 -2.228250 14.393141 -0.803576 -0.337676 -10.438396 -0.054382 -4.264788 -9.555456 -1.297724 1.713837 14.377350 0.195195 1.332767 -10.662252 -1.411869 
-0.111575 47.571709 3.598733 -0.000000 5.117188 -0.000000 -0.092141 -17.470678 -0.076490 -0.110727 -14.033175 -0.026849 -0.000000 -0.000003 -0.000000 -0.000000 12.226564 -0.000000 -5.687435 -0.268816 2.011532 -22.766781 9.440858 -48.879272 14.748551 13.410867 -135.608505 71.293648 -52.037209 -3.075304 4.922657 -0.373074 -1.722154 11.289385 13.156848 33.641605 -5.481563 4.789827 138.054245 -75.228401 -17.524389 18.893400 2.317277 -9.714371 1.037235 -2.235554 15.104825 -0.757392 -0.443192 -10.847127 -0.109270 -4.267298 -9.683926 -0.646929 1.728548 14.991275 -0.240897 1.463967 -11.112495 -1.636632 
-0.113000 47.520798 3.722521 -0.000000 5.117188 -0.000000 -0.092097 -17.382790 -0.076342 -0.110532 -13.623018 -0.026034 -0.000000 -0.000003 -0.000000 -0.000000 12.207032 -0.000000 -5.687435 -0.268816 2.011532 -23.639347 9.267461 -48.635307 14.917158 13.839679 -135.077454 70.665642 -51.947449 -3.123482 4.922657 -0.373074 -1.722154 12.330556 13.248227 33.016674 -5.831451 5.117617 137.810959 -74.355148 -17.787687 18.897749 2.337677 -9.810460 1.039258 -2.508433 15.688408 -0.667361 -0.197057 -11.200397 -0.078099 -4.309927 -9.822338 -1.343609 1.876303 15.655645 0.209645 1.248534 -11.500373 -1.433999 
-0.113200 47.470753 3.834781 -0.000000 5.117188 -0.000000 -0.092058 -17.304665 -0.076226 -0.110303 -13.124975 -0.025047 -0.000000 -0.000003 -0.000000 -0.000000 12.197267 -0.000000 -5.687435 -0.268816 2.011532 -24.472410 9.108152 -48.395073 15.077230 14.258550 -134.563950 70.055595 -51.845421 -3.156469 4.922657 -0.373074 -1.722154 13.360227 13.342381 32.391918 -6.171988 5.441476 137.569168 -73.490105 -18.028334 18.907743 2.376763 -9.991400 1.061991 -2.602357 16.355610 -0.673043 -0.077544 -11.855063 -0.080371 -4.329927 -9.973698 -0.707415 1.841566 16.290203 -0.092305 1.346662 -12.223259 -1.800313 
-0.112140 47.421608 3.932273 -0.000000 5.107422 -0.000000 -0.092029 -17.246067 -0.076127 -0.110043 -12.529272 -0.023872 -0.000000 -0.000003 -0.000000 -0.000000 12.197267 -0.000000 -5.687435 -0.268816 2.011532 -25.281029 8.947042 -48.165554 15.202836 14.651690 -134.054428 69.476784 -51.729610 -3.190747 4.922657 -0.373074 -1.722154 14.348265 13.420842 31.805174 -6.495798 5.754859 137.347351 -72.671844 -18.242559 18.887985 2.387635 -10.069742 1.060709 -2.612570 16.918940 -0.631503 -0.070326 -12.274606 -0.128930 -4.352738 -10.074805 -0.673339 2.040309 16.804970 -0.025909 1.241325 -12.575144 -1.881972 
